<?xml version="1.0" encoding="UTF-8" standalone="no"?>
<!DOCTYPE svg PUBLIC "-//W3C//DTD SVG 1.1//EN"
 "http://www.w3.org/Graphics/SVG/1.1/DTD/svg11.dtd">
<!-- Generated by graphviz version 10.0.1 (0)
 -->
<!-- Pages: 1 -->
<svg width="1349pt" height="367pt"
 viewBox="0.00 0.00 1348.52 366.56" xmlns="http://www.w3.org/2000/svg" xmlns:xlink="http://www.w3.org/1999/xlink">
<g id="graph0" class="graph" transform="scale(1 1) rotate(0) translate(4 362.56)">
<polygon fill="white" stroke="none" points="-4,4 -4,-362.56 1344.52,-362.56 1344.52,4 -4,4"/>
<!-- climberRetract -->
<g id="node1" class="node">
<title>climberRetract</title>
<ellipse fill="none" stroke="blue" cx="1001.1" cy="-324.27" rx="104.65" ry="34.29"/>
<text text-anchor="middle" x="1001.1" y="-331.22" font-family="Times,serif" font-size="14.00">climberRetract()</text>
<text text-anchor="middle" x="1001.1" y="-310.97" font-family="Times,serif" font-size="14.00">(RS)</text>
</g>
<!-- RETRACT -->
<g id="node6" class="node">
<title>RETRACT</title>
<polygon fill="none" stroke="black" points="1167.77,-138.18 1167.77,-214.93 1340.52,-214.93 1340.52,-138.18 1167.77,-138.18"/>
<text text-anchor="middle" x="1254.14" y="-197.63" font-family="Times,serif" font-size="14.00">RETRACT</text>
<polyline fill="none" stroke="black" points="1167.77,-186.68 1340.52,-186.68"/>
<text text-anchor="middle" x="1254.14" y="-169.38" font-family="Times,serif" font-size="14.00">deactivate solenoid</text>
<text text-anchor="middle" x="1254.14" y="-149.13" font-family="Times,serif" font-size="14.00">retract motors</text>
</g>
<!-- climberRetract&#45;&gt;RETRACT -->
<g id="edge5" class="edge">
<title>climberRetract&#45;&gt;RETRACT</title>
<path fill="none" stroke="blue" d="M1052.91,-294.02C1088.98,-272.96 1137.66,-244.54 1178.11,-220.93"/>
<polygon fill="blue" stroke="blue" points="1179.76,-224.02 1186.63,-215.96 1176.23,-217.98 1179.76,-224.02"/>
</g>
<!-- climberActivate -->
<g id="node2" class="node">
<title>climberActivate</title>
<ellipse fill="none" stroke="blue" cx="335.07" cy="-324.27" rx="110.49" ry="34.29"/>
<text text-anchor="middle" x="335.07" y="-331.22" font-family="Times,serif" font-size="14.00">climberActivate()</text>
<text text-anchor="middle" x="335.07" y="-310.97" font-family="Times,serif" font-size="14.00">(LS)</text>
</g>
<!-- SOLEXTEND -->
<g id="node4" class="node">
<title>SOLEXTEND</title>
<polygon fill="none" stroke="black" points="0,-138.31 0,-215.06 164.5,-215.06 164.5,-138.31 0,-138.31"/>
<text text-anchor="middle" x="82.25" y="-197.76" font-family="Times,serif" font-size="14.00">SOLEXTEND</text>
<polyline fill="none" stroke="black" points="0,-186.81 164.5,-186.81"/>
<text text-anchor="middle" x="82.25" y="-169.51" font-family="Times,serif" font-size="14.00">activate solenoids</text>
<text text-anchor="middle" x="82.25" y="-149.26" font-family="Times,serif" font-size="14.00">set motors</text>
</g>
<!-- climberActivate&#45;&gt;SOLEXTEND -->
<g id="edge6" class="edge">
<title>climberActivate&#45;&gt;SOLEXTEND</title>
<path fill="none" stroke="blue" d="M282.69,-293.69C246.75,-272.71 198.47,-244.53 158.31,-221.08"/>
<polygon fill="blue" stroke="blue" points="160.26,-218.17 149.86,-216.15 156.73,-224.22 160.26,-218.17"/>
</g>
<!-- INIT -->
<g id="node3" class="node">
<title>INIT</title>
<polygon fill="none" stroke="black" points="640.72,-158.4 640.72,-194.4 694.72,-194.4 694.72,-158.4 640.72,-158.4"/>
<text text-anchor="middle" x="667.72" y="-173.6" font-family="Times,serif" font-size="14.00">INIT</text>
</g>
<!-- INIT&#45;&gt;climberRetract -->
<g id="edge7" class="edge">
<title>INIT&#45;&gt;climberRetract</title>
<path fill="none" stroke="blue" d="M695,-188.5C745.42,-210.86 854.75,-259.35 928.14,-291.91"/>
<polygon fill="blue" stroke="blue" points="926.31,-294.92 936.87,-295.78 929.15,-288.52 926.31,-294.92"/>
</g>
<!-- INIT&#45;&gt;climberActivate -->
<g id="edge8" class="edge">
<title>INIT&#45;&gt;climberActivate</title>
<path fill="none" stroke="blue" d="M640.5,-188.5C590.41,-210.76 482.06,-258.92 408.84,-291.48"/>
<polygon fill="blue" stroke="blue" points="407.85,-288.09 400.13,-295.35 410.69,-294.48 407.85,-288.09"/>
</g>
<!-- EXTEND -->
<g id="node5" class="node">
<title>EXTEND</title>
<polygon fill="none" stroke="black" points="248.43,-0.5 248.43,-57 421.18,-57 421.18,-0.5 248.43,-0.5"/>
<text text-anchor="middle" x="334.8" y="-39.7" font-family="Times,serif" font-size="14.00">EXTEND</text>
<polyline fill="none" stroke="black" points="248.43,-28.75 421.18,-28.75"/>
<text text-anchor="middle" x="334.8" y="-11.45" font-family="Times,serif" font-size="14.00">run extender motors</text>
</g>
<!-- SOLEXTEND&#45;&gt;EXTEND -->
<g id="edge2" class="edge">
<title>SOLEXTEND&#45;&gt;EXTEND</title>
<path fill="none" stroke="black" d="M148.61,-137.82C188.18,-114.64 237.98,-85.46 276.12,-63.13"/>
<polygon fill="black" stroke="black" points="277.88,-66.15 284.74,-58.07 274.34,-60.11 277.88,-66.15"/>
<text text-anchor="middle" x="183.49" y="-107.42" font-family="Times,serif" font-size="14.00">4 loops</text>
</g>
<!-- EXTEND&#45;&gt;INIT -->
<g id="edge1" class="edge">
<title>EXTEND&#45;&gt;INIT</title>
<path fill="none" stroke="black" d="M399.39,-57.39C467.96,-87.8 574,-134.83 630.04,-159.69"/>
<polygon fill="black" stroke="black" points="628.28,-162.74 638.84,-163.59 631.12,-156.34 628.28,-162.74"/>
</g>
<!-- POSTRETRACT -->
<g id="node7" class="node">
<title>POSTRETRACT</title>
<polygon fill="none" stroke="black" points="947.49,-0.52 947.49,-57.02 1054.24,-57.02 1054.24,-0.52 947.49,-0.52"/>
<text text-anchor="middle" x="1000.87" y="-39.72" font-family="Times,serif" font-size="14.00">POSTRETRACT</text>
<polyline fill="none" stroke="black" points="947.49,-28.77 1054.24,-28.77"/>
<text text-anchor="middle" x="1000.87" y="-11.47" font-family="Times,serif" font-size="14.00">set motors</text>
</g>
<!-- RETRACT&#45;&gt;POSTRETRACT -->
<g id="edge3" class="edge">
<title>RETRACT&#45;&gt;POSTRETRACT</title>
<path fill="none" stroke="black" d="M1187.6,-137.72C1147.74,-114.47 1097.54,-85.18 1059.23,-62.82"/>
<polygon fill="black" stroke="black" points="1061.47,-60.08 1051.07,-58.06 1057.94,-66.12 1061.47,-60.08"/>
<text text-anchor="middle" x="1057.41" y="-107.22" font-family="Times,serif" font-size="14.00">motors retracted</text>
</g>
<!-- POSTRETRACT&#45;&gt;INIT -->
<g id="edge4" class="edge">
<title>POSTRETRACT&#45;&gt;INIT</title>
<path fill="none" stroke="black" d="M947.34,-52.49C879.64,-82.49 764.76,-133.4 705.53,-159.64"/>
<polygon fill="black" stroke="black" points="704.25,-156.38 696.52,-163.63 707.08,-162.78 704.25,-156.38"/>
</g>
</g>
</svg>
