<?xml version="1.0" encoding="UTF-8" standalone="no"?>
<!DOCTYPE svg PUBLIC "-//W3C//DTD SVG 1.1//EN"
 "http://www.w3.org/Graphics/SVG/1.1/DTD/svg11.dtd">
<!-- Generated by graphviz version 10.0.1 (0)
 -->
<!-- Pages: 1 -->
<svg width="2263pt" height="2204pt"
 viewBox="0.00 0.00 2262.59 2203.77" xmlns="http://www.w3.org/2000/svg" xmlns:xlink="http://www.w3.org/1999/xlink">
<g id="graph0" class="graph" transform="scale(1 1) rotate(0) translate(4 2199.77)">
<polygon fill="white" stroke="none" points="-4,4 -4,-2199.77 2258.59,-2199.77 2258.59,4 -4,4"/>
<!-- intakeRetract -->
<g id="node1" class="node">
<title>intakeRetract</title>
<ellipse fill="none" stroke="blue" cx="1487.33" cy="-396.4" rx="98.82" ry="34.29"/>
<text text-anchor="middle" x="1487.33" y="-403.35" font-family="Times,serif" font-size="14.00">intakeRetract()</text>
<text text-anchor="middle" x="1487.33" y="-383.1" font-family="Times,serif" font-size="14.00">(A)</text>
</g>
<!-- IDLE -->
<g id="node7" class="node">
<title>IDLE</title>
<polygon fill="none" stroke="black" points="1119.44,-88.89 1119.44,-165.64 1316.94,-165.64 1316.94,-88.89 1119.44,-88.89"/>
<text text-anchor="middle" x="1218.19" y="-148.34" font-family="Times,serif" font-size="14.00">IDLE</text>
<polyline fill="none" stroke="black" points="1119.44,-137.39 1316.94,-137.39"/>
<text text-anchor="middle" x="1218.19" y="-120.09" font-family="Times,serif" font-size="14.00">apply current limits</text>
<text text-anchor="middle" x="1218.19" y="-99.84" font-family="Times,serif" font-size="14.00">go to angle zero speed</text>
</g>
<!-- intakeRetract&#45;&gt;IDLE -->
<g id="edge1" class="edge">
<title>intakeRetract&#45;&gt;IDLE</title>
<path fill="none" stroke="blue" d="M1454.6,-363.67C1407.16,-316.23 1319.07,-228.13 1264.84,-173.91"/>
<polygon fill="blue" stroke="blue" points="1267.39,-171.5 1257.84,-166.91 1262.44,-176.45 1267.39,-171.5"/>
</g>
<!-- intakeActivate -->
<g id="node2" class="node">
<title>intakeActivate</title>
<ellipse fill="none" stroke="blue" cx="1910.04" cy="-429.58" rx="104.65" ry="34.29"/>
<text text-anchor="middle" x="1910.04" y="-436.53" font-family="Times,serif" font-size="14.00">intakeActivate()</text>
<text text-anchor="middle" x="1910.04" y="-416.28" font-family="Times,serif" font-size="14.00">(LB)</text>
</g>
<!-- INTAKING -->
<g id="node8" class="node">
<title>INTAKING</title>
<polygon fill="none" stroke="black" points="1503.59,-725.67 1503.59,-802.42 1668.09,-802.42 1668.09,-725.67 1503.59,-725.67"/>
<text text-anchor="middle" x="1585.84" y="-785.12" font-family="Times,serif" font-size="14.00">INTAKING</text>
<polyline fill="none" stroke="black" points="1503.59,-774.17 1668.09,-774.17"/>
<text text-anchor="middle" x="1585.84" y="-756.87" font-family="Times,serif" font-size="14.00">intake angles down</text>
<text text-anchor="middle" x="1585.84" y="-736.62" font-family="Times,serif" font-size="14.00">spin wheels</text>
</g>
<!-- intakeActivate&#45;&gt;INTAKING -->
<g id="edge2" class="edge">
<title>intakeActivate&#45;&gt;INTAKING</title>
<path fill="none" stroke="blue" d="M1878.06,-462.57C1820.19,-522.27 1697.92,-648.42 1631.35,-717.1"/>
<polygon fill="blue" stroke="blue" points="1629.02,-714.48 1624.57,-724.09 1634.04,-719.35 1629.02,-714.48"/>
</g>
<!-- spinup -->
<g id="node3" class="node">
<title>spinup</title>
<ellipse fill="none" stroke="blue" cx="482.9" cy="-1400.83" rx="57.98" ry="34.29"/>
<text text-anchor="middle" x="482.9" y="-1407.78" font-family="Times,serif" font-size="14.00">spinup()</text>
<text text-anchor="middle" x="482.9" y="-1387.53" font-family="Times,serif" font-size="14.00">(B/X)</text>
</g>
<!-- SPINUP -->
<g id="node12" class="node">
<title>SPINUP</title>
<polygon fill="none" stroke="black" points="82.01,-1093.32 82.01,-1170.07 345.51,-1170.07 345.51,-1093.32 82.01,-1093.32"/>
<text text-anchor="middle" x="213.76" y="-1152.77" font-family="Times,serif" font-size="14.00">SPINUP</text>
<polyline fill="none" stroke="black" points="82.01,-1141.82 345.51,-1141.82"/>
<text text-anchor="middle" x="213.76" y="-1124.52" font-family="Times,serif" font-size="14.00">angle correctly for speaker</text>
<text text-anchor="middle" x="213.76" y="-1104.27" font-family="Times,serif" font-size="14.00">get shooter wheels up to speed</text>
</g>
<!-- spinup&#45;&gt;SPINUP -->
<g id="edge3" class="edge">
<title>spinup&#45;&gt;SPINUP</title>
<path fill="none" stroke="blue" d="M453.07,-1371C406.37,-1324.3 315.63,-1233.56 260.29,-1178.22"/>
<polygon fill="blue" stroke="blue" points="263.01,-1175.99 253.46,-1171.39 258.06,-1180.94 263.01,-1175.99"/>
</g>
<!-- scoreAmp -->
<g id="node4" class="node">
<title>scoreAmp</title>
<ellipse fill="none" stroke="blue" cx="850.55" cy="-1640.99" rx="69.65" ry="34.29"/>
<text text-anchor="middle" x="850.55" y="-1647.94" font-family="Times,serif" font-size="14.00">scoreAmp()</text>
<text text-anchor="middle" x="850.55" y="-1627.69" font-family="Times,serif" font-size="14.00">(Y)</text>
</g>
<!-- AIMAMP -->
<g id="node14" class="node">
<title>AIMAMP</title>
<polygon fill="none" stroke="black" points="747.67,-1857.27 747.67,-1913.77 953.42,-1913.77 953.42,-1857.27 747.67,-1857.27"/>
<text text-anchor="middle" x="850.55" y="-1896.47" font-family="Times,serif" font-size="14.00">AIMAMP</text>
<polyline fill="none" stroke="black" points="747.67,-1885.52 953.42,-1885.52"/>
<text text-anchor="middle" x="850.55" y="-1868.22" font-family="Times,serif" font-size="14.00">angle correctly for amp</text>
</g>
<!-- scoreAmp&#45;&gt;AIMAMP -->
<g id="edge4" class="edge">
<title>scoreAmp&#45;&gt;AIMAMP</title>
<path fill="none" stroke="blue" d="M850.55,-1675.77C850.55,-1720.62 850.55,-1798.46 850.55,-1845.66"/>
<polygon fill="blue" stroke="blue" points="847.05,-1845.44 850.55,-1855.44 854.05,-1845.44 847.05,-1845.44"/>
</g>
<!-- fire -->
<g id="node5" class="node">
<title>fire</title>
<ellipse fill="none" stroke="blue" cx="213.76" cy="-396.4" rx="46.32" ry="34.29"/>
<text text-anchor="middle" x="213.76" y="-403.35" font-family="Times,serif" font-size="14.00">fire()</text>
<text text-anchor="middle" x="213.76" y="-383.1" font-family="Times,serif" font-size="14.00">(RB)</text>
</g>
<!-- FIRE -->
<g id="node16" class="node">
<title>FIRE</title>
<polygon fill="none" stroke="black" points="371.77,-78.76 371.77,-175.76 594.02,-175.76 594.02,-78.76 371.77,-78.76"/>
<text text-anchor="middle" x="482.9" y="-158.46" font-family="Times,serif" font-size="14.00">FIRE</text>
<polyline fill="none" stroke="black" points="371.77,-147.51 594.02,-147.51"/>
<text text-anchor="middle" x="482.9" y="-130.21" font-family="Times,serif" font-size="14.00">ensure correct angle</text>
<text text-anchor="middle" x="482.9" y="-109.96" font-family="Times,serif" font-size="14.00">spin up left wheel</text>
<text text-anchor="middle" x="482.9" y="-89.71" font-family="Times,serif" font-size="14.00">iterate shooterClearCount</text>
</g>
<!-- fire&#45;&gt;FIRE -->
<g id="edge5" class="edge">
<title>fire&#45;&gt;FIRE</title>
<path fill="none" stroke="blue" d="M241.55,-368.61C284.91,-325.25 369.53,-240.63 426.15,-184.01"/>
<polygon fill="blue" stroke="blue" points="428.28,-186.83 432.88,-177.28 423.33,-181.88 428.28,-186.83"/>
</g>
<!-- rapidFire -->
<g id="node6" class="node">
<title>rapidFire</title>
<ellipse fill="none" stroke="blue" cx="2179.11" cy="-933.14" rx="75.48" ry="34.29"/>
<text text-anchor="middle" x="2179.11" y="-940.09" font-family="Times,serif" font-size="14.00">rapidFire()</text>
<text text-anchor="middle" x="2179.11" y="-919.84" font-family="Times,serif" font-size="14.00">(auton)</text>
</g>
<!-- RAPIDFIRE -->
<g id="node18" class="node">
<title>RAPIDFIRE</title>
<polygon fill="none" stroke="black" points="1844.31,-864.2 1844.31,-940.95 2033.56,-940.95 2033.56,-864.2 1844.31,-864.2"/>
<text text-anchor="middle" x="1938.94" y="-923.65" font-family="Times,serif" font-size="14.00">RAPIDFIRE</text>
<polyline fill="none" stroke="black" points="1844.31,-912.7 2033.56,-912.7"/>
<text text-anchor="middle" x="1938.94" y="-895.4" font-family="Times,serif" font-size="14.00">set the correct angle</text>
<text text-anchor="middle" x="1938.94" y="-875.15" font-family="Times,serif" font-size="14.00">spin up left wheel</text>
</g>
<!-- rapidFire&#45;&gt;RAPIDFIRE -->
<g id="edge6" class="edge">
<title>rapidFire&#45;&gt;RAPIDFIRE</title>
<path fill="none" stroke="blue" d="M2106.07,-923.84C2086.86,-921.4 2065.74,-918.71 2045.16,-916.09"/>
<polygon fill="blue" stroke="blue" points="2045.67,-912.63 2035.31,-914.84 2044.79,-919.57 2045.67,-912.63"/>
</g>
<!-- INTAKING&#45;&gt;intakeRetract -->
<g id="edge8" class="edge">
<title>INTAKING&#45;&gt;intakeRetract</title>
<path fill="none" stroke="blue" d="M1575.49,-725.4C1557.17,-657.06 1519.17,-515.23 1499.59,-442.14"/>
<polygon fill="blue" stroke="blue" points="1502.97,-441.24 1497,-432.49 1496.21,-443.05 1502.97,-441.24"/>
</g>
<!-- BACKOFF -->
<g id="node9" class="node">
<title>BACKOFF</title>
<polygon fill="none" stroke="black" points="1330.83,-1093.32 1330.83,-1170.07 1643.83,-1170.07 1643.83,-1093.32 1330.83,-1093.32"/>
<text text-anchor="middle" x="1487.33" y="-1152.77" font-family="Times,serif" font-size="14.00">BACKOFF</text>
<polyline fill="none" stroke="black" points="1330.83,-1141.82 1643.83,-1141.82"/>
<text text-anchor="middle" x="1487.33" y="-1124.52" font-family="Times,serif" font-size="14.00">retract</text>
<text text-anchor="middle" x="1487.33" y="-1104.27" font-family="Times,serif" font-size="14.00">feed note backwards out of mechanism</text>
</g>
<!-- INTAKING&#45;&gt;BACKOFF -->
<g id="edge7" class="edge">
<title>INTAKING&#45;&gt;BACKOFF</title>
<path fill="none" stroke="black" d="M1575.49,-802.7C1557.49,-869.86 1520.47,-1008 1500.61,-1082.12"/>
<polygon fill="black" stroke="black" points="1497.3,-1080.98 1498.09,-1091.55 1504.06,-1082.79 1497.3,-1080.98"/>
<text text-anchor="middle" x="1488.55" y="-969.61" font-family="Times,serif" font-size="14.00">canifier</text>
<text text-anchor="middle" x="1488.55" y="-949.36" font-family="Times,serif" font-size="14.00">LIMR tripped</text>
</g>
<!-- NOTEFORWARD -->
<g id="node10" class="node">
<title>NOTEFORWARD</title>
<polygon fill="none" stroke="black" points="1135.94,-1362.46 1135.94,-1439.21 1300.44,-1439.21 1300.44,-1362.46 1135.94,-1362.46"/>
<text text-anchor="middle" x="1218.19" y="-1421.91" font-family="Times,serif" font-size="14.00">NOTEFORWARD</text>
<polyline fill="none" stroke="black" points="1135.94,-1410.96 1300.44,-1410.96"/>
<text text-anchor="middle" x="1218.19" y="-1393.66" font-family="Times,serif" font-size="14.00">move note forward</text>
<text text-anchor="middle" x="1218.19" y="-1373.41" font-family="Times,serif" font-size="14.00">rumble controllers</text>
</g>
<!-- BACKOFF&#45;&gt;NOTEFORWARD -->
<g id="edge9" class="edge">
<title>BACKOFF&#45;&gt;NOTEFORWARD</title>
<path fill="none" stroke="black" d="M1448.48,-1170.54C1399.98,-1219.04 1317.09,-1301.94 1265.1,-1353.93"/>
<polygon fill="black" stroke="black" points="1262.7,-1351.38 1258.1,-1360.92 1267.65,-1356.33 1262.7,-1351.38"/>
<text text-anchor="middle" x="1307.29" y="-1289.43" font-family="Times,serif" font-size="14.00">canifier</text>
<text text-anchor="middle" x="1307.29" y="-1269.18" font-family="Times,serif" font-size="14.00">LIMR tripped</text>
</g>
<!-- HOLDING -->
<g id="node11" class="node">
<title>HOLDING</title>
<polygon fill="none" stroke="black" points="760.05,-1471.09 760.05,-1527.59 941.05,-1527.59 941.05,-1471.09 760.05,-1471.09"/>
<text text-anchor="middle" x="850.55" y="-1510.29" font-family="Times,serif" font-size="14.00">HOLDING</text>
<polyline fill="none" stroke="black" points="760.05,-1499.34 941.05,-1499.34"/>
<text text-anchor="middle" x="850.55" y="-1482.04" font-family="Times,serif" font-size="14.00">stop moving the note</text>
</g>
<!-- NOTEFORWARD&#45;&gt;HOLDING -->
<g id="edge10" class="edge">
<title>NOTEFORWARD&#45;&gt;HOLDING</title>
<path fill="none" stroke="black" d="M1135.69,-1422.94C1081.49,-1437.46 1010.2,-1456.56 952.47,-1472.03"/>
<polygon fill="black" stroke="black" points="951.7,-1468.61 942.94,-1474.58 953.51,-1475.38 951.7,-1468.61"/>
<text text-anchor="middle" x="994.58" y="-1474.69" font-family="Times,serif" font-size="14.00">canifier</text>
<text text-anchor="middle" x="994.58" y="-1454.44" font-family="Times,serif" font-size="14.00">LIMR tripped</text>
</g>
<!-- HOLDING&#45;&gt;spinup -->
<g id="edge11" class="edge">
<title>HOLDING&#45;&gt;spinup</title>
<path fill="none" stroke="blue" d="M759.67,-1474.99C693.64,-1457.3 605.92,-1433.79 547.09,-1418.03"/>
<polygon fill="blue" stroke="blue" points="548.11,-1414.68 537.55,-1415.47 546.3,-1421.44 548.11,-1414.68"/>
</g>
<!-- HOLDING&#45;&gt;scoreAmp -->
<g id="edge12" class="edge">
<title>HOLDING&#45;&gt;scoreAmp</title>
<path fill="none" stroke="blue" d="M850.55,-1528.01C850.55,-1547.19 850.55,-1572.87 850.55,-1594.9"/>
<polygon fill="blue" stroke="blue" points="847.05,-1594.85 850.55,-1604.85 854.05,-1594.85 847.05,-1594.85"/>
</g>
<!-- SPINUPPIGEON -->
<g id="node13" class="node">
<title>SPINUPPIGEON</title>
<polygon fill="none" stroke="black" points="0,-735.8 0,-792.3 230.5,-792.3 230.5,-735.8 0,-735.8"/>
<text text-anchor="middle" x="115.25" y="-775" font-family="Times,serif" font-size="14.00">SPINUPPIGEON</text>
<polyline fill="none" stroke="black" points="0,-764.05 230.5,-764.05"/>
<text text-anchor="middle" x="115.25" y="-746.75" font-family="Times,serif" font-size="14.00">correct angle using pigeon</text>
</g>
<!-- SPINUP&#45;&gt;SPINUPPIGEON -->
<g id="edge13" class="edge">
<title>SPINUP&#45;&gt;SPINUPPIGEON</title>
<path fill="none" stroke="black" d="M203.4,-1093.04C184.55,-1022.66 144.8,-874.34 125.8,-803.42"/>
<polygon fill="black" stroke="black" points="129.19,-802.54 123.22,-793.79 122.43,-804.36 129.19,-802.54"/>
<text text-anchor="middle" x="131.6" y="-975.43" font-family="Times,serif" font-size="14.00">correct</text>
<text text-anchor="middle" x="131.6" y="-955.18" font-family="Times,serif" font-size="14.00">position</text>
</g>
<!-- SPINUPPIGEON&#45;&gt;fire -->
<g id="edge14" class="edge">
<title>SPINUPPIGEON&#45;&gt;fire</title>
<path fill="none" stroke="blue" d="M122.9,-735.5C139.96,-671.82 181.25,-517.75 201.77,-441.16"/>
<polygon fill="blue" stroke="blue" points="205.04,-442.47 204.25,-431.9 198.28,-440.66 205.04,-442.47"/>
</g>
<!-- SCOREAMP -->
<g id="node15" class="node">
<title>SCOREAMP</title>
<polygon fill="none" stroke="black" points="764.17,-2098.27 764.17,-2195.27 936.92,-2195.27 936.92,-2098.27 764.17,-2098.27"/>
<text text-anchor="middle" x="850.55" y="-2177.97" font-family="Times,serif" font-size="14.00">SCOREAMP</text>
<polyline fill="none" stroke="black" points="764.17,-2167.02 936.92,-2167.02"/>
<text text-anchor="middle" x="850.55" y="-2149.72" font-family="Times,serif" font-size="14.00">wait 50 loops</text>
<text text-anchor="middle" x="850.55" y="-2129.47" font-family="Times,serif" font-size="14.00">apply current limit</text>
<text text-anchor="middle" x="850.55" y="-2109.22" font-family="Times,serif" font-size="14.00">spin left motor</text>
</g>
<!-- AIMAMP&#45;&gt;SCOREAMP -->
<g id="edge15" class="edge">
<title>AIMAMP&#45;&gt;SCOREAMP</title>
<path fill="none" stroke="black" d="M850.55,-1914.22C850.55,-1955.47 850.55,-2032.47 850.55,-2086.54"/>
<polygon fill="black" stroke="black" points="847.05,-2086.53 850.55,-2096.53 854.05,-2086.53 847.05,-2086.53"/>
<text text-anchor="middle" x="809.3" y="-2027.58" font-family="Times,serif" font-size="14.00">amp angle</text>
<text text-anchor="middle" x="809.3" y="-2007.33" font-family="Times,serif" font-size="14.00">is correct</text>
</g>
<!-- POSTFIRE -->
<g id="node17" class="node">
<title>POSTFIRE</title>
<polygon fill="none" stroke="black" points="747.67,-0.5 747.67,-57 953.42,-57 953.42,-0.5 747.67,-0.5"/>
<text text-anchor="middle" x="850.55" y="-39.7" font-family="Times,serif" font-size="14.00">POSTFIRE</text>
<polyline fill="none" stroke="black" points="747.67,-28.75 953.42,-28.75"/>
<text text-anchor="middle" x="850.55" y="-11.45" font-family="Times,serif" font-size="14.00">reset shooterClearCount</text>
</g>
<!-- FIRE&#45;&gt;POSTFIRE -->
<g id="edge16" class="edge">
<title>FIRE&#45;&gt;POSTFIRE</title>
<path fill="none" stroke="black" d="M594.2,-97.44C639.21,-85.38 691.12,-71.47 736.4,-59.33"/>
<polygon fill="black" stroke="black" points="737.25,-62.73 746,-56.76 735.44,-55.97 737.25,-62.73"/>
<text text-anchor="middle" x="615.8" y="-65.09" font-family="Times,serif" font-size="14.00">canifyer</text>
<text text-anchor="middle" x="615.8" y="-44.84" font-family="Times,serif" font-size="14.00">LIMF tripped</text>
</g>
<!-- POSTFIRE&#45;&gt;IDLE -->
<g id="edge17" class="edge">
<title>POSTFIRE&#45;&gt;IDLE</title>
<path fill="none" stroke="black" d="M953.45,-56.32C1001.63,-69.23 1059.09,-84.63 1108.14,-97.77"/>
<polygon fill="black" stroke="black" points="1107.1,-101.12 1117.66,-100.32 1108.91,-94.35 1107.1,-101.12"/>
<text text-anchor="middle" x="981.3" y="-104.25" font-family="Times,serif" font-size="14.00">canifyer</text>
<text text-anchor="middle" x="981.3" y="-84" font-family="Times,serif" font-size="14.00">LIMF tripped</text>
</g>
<!-- RAPIDPOSTFIRE -->
<g id="node19" class="node">
<title>RAPIDPOSTFIRE</title>
<polygon fill="none" stroke="black" points="1650.89,-855.75 1650.89,-891.75 1774.14,-891.75 1774.14,-855.75 1650.89,-855.75"/>
<text text-anchor="middle" x="1712.51" y="-870.95" font-family="Times,serif" font-size="14.00">RAPIDPOSTFIRE</text>
</g>
<!-- RAPIDFIRE&#45;&gt;RAPIDPOSTFIRE -->
<g id="edge18" class="edge">
<title>RAPIDFIRE&#45;&gt;RAPIDPOSTFIRE</title>
<path fill="none" stroke="black" d="M1843.9,-890.48C1824.45,-888 1804.28,-885.43 1785.74,-883.07"/>
<polygon fill="black" stroke="black" points="1786.3,-879.62 1775.93,-881.83 1785.41,-886.56 1786.3,-879.62"/>
<text text-anchor="middle" x="1765.32" y="-913.98" font-family="Times,serif" font-size="14.00">canifier</text>
<text text-anchor="middle" x="1765.32" y="-893.73" font-family="Times,serif" font-size="14.00">LIMF tripped</text>
</g>
<!-- RAPIDPOSTFIRE&#45;&gt;INTAKING -->
<g id="edge19" class="edge">
<title>RAPIDPOSTFIRE&#45;&gt;INTAKING</title>
<path fill="none" stroke="black" d="M1691.31,-855.39C1676.96,-842.96 1657.32,-825.95 1638.88,-809.98"/>
<polygon fill="black" stroke="black" points="1641.51,-807.63 1631.66,-803.73 1636.93,-812.92 1641.51,-807.63"/>
<text text-anchor="middle" x="1714.6" y="-819.39" font-family="Times,serif" font-size="14.00">canifier</text>
<text text-anchor="middle" x="1714.6" y="-799.14" font-family="Times,serif" font-size="14.00">LIMF tripped</text>
</g>
</g>
</svg>
